<svg width="108" height="32" fill="none" xmlns="http://www.w3.org/2000/svg"><path d="M0 0h9v18.625a1.375 1.375 0 1 0 2.75 0V12.5a.5.5 0 0 1 1 0v9.625a1.375 1.375 0 1 0 2.75 0V13.5a.5.5 0 0 1 1 0v10.125a1.375 1.375 0 1 0 2.75 0V12.5a.5.5 0 0 1 1 0v7.625a1.375 1.375 0 1 0 2.75 0V10h9v6c0 8.837-7.163 16-16 16S0 24.837 0 16V0Z" fill="#fff"/><path d="M23 0h9v7.25h-9V0Z" fill="#fff"/><circle cx="13.5" cy="3.625" fill="#fff" r="1.75"/><circle cx="18.5" cy="3.625" r="1.75" fill="#fff"/><path fill-rule="evenodd" clip-rule="evenodd" d="M43.968 9.6c1.888 0 3.552.448 4.576 1.024l-.864 3.04c-.704-.416-2.112-.992-3.616-.992-1.536 0-2.4.768-2.4 1.824 0 1.088.8 1.568 2.976 2.4 3.136 1.088 4.544 2.688 4.576 5.216 0 3.136-2.432 5.376-6.976 5.376-2.08 0-3.936-.48-5.216-1.184l.896-3.232c.96.608 2.816 1.28 4.352 1.28 1.888 0 2.752-.8 2.752-1.92 0-1.152-.704-1.728-2.816-2.496-3.328-1.12-4.704-2.944-4.704-4.992 0-3.008 2.496-5.344 6.464-5.344Zm63.136-7.488v20.16c0 1.76.064 3.648.128 4.832h-3.84l-.224-2.72h-.064c-1.024 1.888-3.104 3.104-5.568 3.104-4.128 0-7.36-3.488-7.36-8.768-.032-5.728 3.552-9.152 7.68-9.152 2.368 0 4.032.96 4.832 2.208h.064V2.112h4.352Zm-35.968 7.84v9.312c0 2.848.928 4.672 3.2 4.672 1.76 0 2.88-1.184 3.296-2.336.16-.352.256-.832.256-1.344V9.952h4.352v12c0 2.048.064 3.712.128 5.12h-3.776l-.224-2.56h-.096c-.736 1.184-2.432 2.944-5.504 2.944-3.104 0-5.952-1.856-5.952-7.456V9.952h4.32Zm-16.192-7.84v15.36h.064c.416-.672.928-1.408 1.344-2.016l4.192-5.536h5.216l-6.368 7.04 7.232 10.112h-5.312l-4.928-7.552-1.44 1.728v5.824h-4.32V2.112h4.32Zm33.696 7.84v17.12h-4.288V9.952h4.288Zm10.304 2.976c-2.784 0-4.32 2.464-4.32 5.632 0 3.168 1.536 5.44 4.288 5.44 1.76 0 3.296-1.184 3.712-3.072.096-.384.128-.8.128-1.28v-2.56c0-.352-.032-.8-.096-1.152-.384-1.664-1.76-3.008-3.712-3.008ZM86.496 3.52c1.504 0 2.4 1.024 2.432 2.368 0 1.28-.96 2.336-2.464 2.336-1.44 0-2.4-1.056-2.4-2.336 0-1.344.992-2.368 2.432-2.368Z" fill="#fff"/></svg>