<svg id="Skuid_Logo" data-name="Skuid Logo" xmlns="http://www.w3.org/2000/svg" viewBox="0 0 890.93 256"><defs><style>.cls-1{fill:#225fac}</style></defs><path class="cls-1" d="M0 0h72v149a11 11 0 0 0 22 0v-49a4 4 0 0 1 8 0v77a11 11 0 0 0 22 0v-69a4 4 0 0 1 8 0v81a11 11 0 0 0 22 0v-89a4 4 0 0 1 8 0v61a11 11 0 0 0 22 0V80h72v48a128 128 0 0 1-256 0Z"/><path class="cls-1" d="M184 0h72v58h-72Z"/><circle class="cls-1" cx="108" cy="29" r="14"/><circle class="cls-1" cx="148" cy="29" r="14"/><path d="M351.74 76.8c15.11 0 28.42 3.58 36.61 8.19l-6.91 24.32a61.05 61.05 0 0 0-28.93-7.93c-12.29 0-19.2 6.14-19.2 14.59 0 8.7 6.4 12.54 23.81 19.2 25.09 8.7 36.35 21.5 36.61 41.73 0 25.08-19.46 43-55.81 43-16.64 0-31.49-3.84-41.73-9.47l7.17-25.85c7.68 4.86 22.53 10.24 34.82 10.24 15.1 0 22-6.4 22-15.36 0-9.22-5.63-13.83-22.53-20C311 150.53 300 135.94 300 119.55c0-24.06 20-42.75 51.74-42.75Zm505.09-59.9v161.28c0 14.08.51 29.18 1 38.65h-30.69l-1.8-21.76h-.51c-8.19 15.11-24.83 24.83-44.54 24.83-33 0-58.88-27.9-58.88-70.14-.26-45.82 28.41-73.22 61.44-73.22 18.94 0 32.25 7.68 38.65 17.67h.5V16.9ZM569.09 79.62v74.49c0 22.79 7.42 37.38 25.6 37.38 14.08 0 23-9.47 26.37-18.69a26.86 26.86 0 0 0 2-10.75V79.62h34.82v96c0 16.38.51 29.69 1 41h-30.2l-1.8-20.48h-.76c-5.89 9.47-19.46 23.55-44 23.55-24.83 0-47.61-14.85-47.61-59.65V79.62ZM439.55 16.9v122.88h.51c3.33-5.38 7.43-11.27 10.76-16.13l33.53-44.29h41.73l-50.94 56.32 57.86 80.9h-42.5l-39.43-60.42L439.55 170v46.6H405V16.9Zm269.57 62.72v137h-34.3v-137Zm82.43 23.8c-22.27 0-34.56 19.72-34.56 45.06S769.28 192 791.3 192c14.08 0 26.36-9.47 29.69-24.58a41.93 41.93 0 0 0 1-10.24V136.7a56.12 56.12 0 0 0-.77-9.21c-3.04-13.31-14.05-24.07-29.67-24.07ZM692 28.16c12 0 19.2 8.19 19.45 18.94 0 10.24-7.68 18.69-19.71 18.69-11.52 0-19.2-8.45-19.2-18.69-.03-10.75 7.91-18.94 19.46-18.94Z" style="fill:#1b1b1d;fill-rule:evenodd"/><path d="M890.93 27.79a10.56 10.56 0 1 1-10.46-10.27 10.34 10.34 0 0 1 10.46 10.27Zm-18.48 0a8 8 0 0 0 8 8.21 7.87 7.87 0 0 0 7.83-8.15 7.93 7.93 0 1 0-15.85-.06Zm6.33 5.33h-2.38V22.84a28.64 28.64 0 0 1 3.94-.31 5.47 5.47 0 0 1 3.51.81 2.59 2.59 0 0 1 1.07 2.2 2.65 2.65 0 0 1-2.13 2.46v.12c1 .32 1.5 1.13 1.81 2.51a9.27 9.27 0 0 0 .76 2.51h-2.51a8.25 8.25 0 0 1-.81-2.51c-.19-1.06-.82-1.57-2.13-1.57h-1.13Zm.06-5.77H880c1.31 0 2.38-.44 2.38-1.5s-.69-1.57-2.19-1.57a5.8 5.8 0 0 0-1.32.13Z" style="fill:#231f20"/></svg>