<svg width="2000" height="250" fill="none" xmlns="http://www.w3.org/2000/svg"><g clip-path="url(#a)"><path fill="#fff" d="M0 0h2000v250H0z"/><path d="M2012-90H-1v340h2013V-90Z" fill="url(#b)"/><path d="M1753.64 130.941h-16.61v6.411h16.61v-6.411Z" fill="#37393B"/><path d="M1737.03 130.941h16.61l-16.61 2.612v-2.612Z" fill="#6F7277"/><path d="M1755.06 129.991h-19.45v.95h19.45v-.95Zm0 7.361h-19.45v63.157h19.45v-63.157Zm-121.96 12.346h-50.31v48.912h50.31v-48.912Zm-220.53 1.425h117.93v49.386h-117.93v-49.386Z" fill="#37393B"/><path d="M1446.47 123.58h32.39v76.929h-32.39V123.58Zm85.47 40.697h12.18v36.232h-12.18v-36.232Zm59.63-64.915h-19.93V200.51h19.93V99.362Zm126.98.95h-19.94v101.147h19.94V100.312Zm-41.93 31.935h-19.93v69.948h19.93v-69.948Zm-301.69-14.365H1355v82.627h19.93v-82.627Zm-11.39-9.26h8.31v9.26h-8.31v-9.26Zm14.48 20.657h19.93v71.23h-19.93v-71.23Zm7.35-4.274h4.51v4.274h-8.3l3.79-4.274Z" fill="#37393B"/><path d="M1550.29 133.553h67.62l.81 66.719h-67.63l-.8-66.719Zm30.37-7.598h-5.7v7.598h5.7v-7.598Zm5.69 2.374h-5.69v5.224h5.69v-5.224Zm82.1-11.159h-39.15v83.339h39.15V117.17Zm-35.83-1.425h-1.66v1.425h1.66v-1.425Zm3.33 0h-2.85v1.425h2.85v-1.425Zm18.03-2.612h-5.46v4.037h5.46v-4.037Zm9.97 2.612h-4.04v1.425h4.04v-1.425Zm-177.26-31.341h-20.88v116.105h20.88V84.404Zm-4.27-6.648h-12.1v5.223h12.1v-5.223Z" fill="#6F7277"/><path d="M1484.56 82.98h-16.37v1.424h16.37v-1.425Zm53.15 40.6h-12.81v76.929h12.81V123.58Zm-7.59-13.059h2.13l3.8 13.059h-9.73l3.8-13.059Z" fill="#6F7277"/><path d="M1525.37 114.795h.48l.47 8.786h-1.42l.47-8.786Zm11.39 0h.48l.47 8.786h-1.42l.47-8.786ZM1414.56 99.6h-18.51v100.909h18.51V99.599Z" fill="#6F7277"/><path d="M1414.56 95.088h-14V99.6h14v-4.512Z" fill="#6F7277"/><path d="M1414.56 94.138h-15.42v.95h15.42v-.95Zm26.34 18.52h-18.51v87.851h18.51v-87.851Z" fill="#6F7277"/><path d="M1436.39 108.147h-14v4.512h14v-4.512Zm1.42-.949h-15.42v.949h15.42v-.949Z" fill="#6F7277"/><path opacity=".33" d="M1465.81 84.404h7.6l-7.6 116.105V84.404ZM1396.05 99.6h7.59l-7.59 100.909V99.599Zm4.51-4.512h14l-14 2.137v-2.137Zm21.83 17.57h7.59l-7.59 87.139v-87.139Zm0-4.511h14l-14 2.137v-2.137Z" fill="#37393B"/><path d="M1733.95 74.431h-6.89v10.21h6.89v-10.21Zm7.83 0h-6.89v10.21h6.89v-10.21Zm0 10.21h-24.92V200.51h24.92V84.641Zm42.23 65.769h-21.12v50.099h21.12V150.41Z" fill="#6F7277"/><path d="M1766.69 142.575h13.53l3.79 7.836h-21.12l3.8-7.836Z" fill="#6F7277"/><path d="M1767.4 148.274h-8.07v52.235h8.07v-52.235Z" fill="#8B8F95"/><path d="M1762.66 139.963h1.18c1.19 0 1.9 8.311 1.9 8.311h-4.98s.71-8.311 1.9-8.311Z" fill="#6F7277"/><path opacity=".33" d="M1733.95 74.431h-6.89v2.612h6.89v-2.612Zm7.83 0h-6.89v2.612h6.89v-2.612Zm-22.55 10.21h-2.37V200.51l2.37-115.868Zm14.48 9.497h-2.37v106.134l2.37-106.133Zm34.64 54.136h-8.07v51.998h8.07v-51.998Z" fill="#37393B"/><path d="M1729.91 70.633h1.19l2.85 3.799h-6.89l2.85-3.8Z" fill="#6F7277"/><path d="M1730.15 67.783h.71v2.85h-.71v-2.85Zm7.59 2.85h1.19l2.85 3.799h-6.89l2.85-3.8Z" fill="#6F7277"/><path d="M1737.98 67.783h.71v2.85h-.71v-2.85Z" fill="#6F7277"/><path d="m1731.34 94.138-7.12 106.371 7.12-.237V94.139Z" fill="#8B8F95"/><path d="M-1 201.509h2013v45.113l-2013 .237v-45.35Z" fill="url(#c)"/><path d="M831.122 224.303H2012V237H888.518c-111.496 0-57.396-12.697-57.396-12.697Z" fill="#4084CA"/><path d="M831.122 224.303H2012v6.348H917.108c-111.495 0-85.986-6.348-85.986-6.348Z" fill="#80ADDC"/><path d="M831.122 224.303H2012v2.078H941.471c-111.495 0-110.349-2.078-110.349-2.078Z" fill="#BFD6ED"/><path d="m1668.86 200.509 10.91-155.757h16.59l13.6 155.757h-41.1Z" fill="#6F7277" stroke="#37393B" stroke-width="2"/><path opacity=".44" d="M1679.61 44.515h5.69l-16.44 155.994 10.75-155.994Z" fill="#37393B"/><path d="m1676.93 85.401 20.64-24.337-17.8-16.264" stroke="#37393B" stroke-width="3"/><path d="m1675.17 109.429 24.44-24.337-20.88-24.004 17.8-16.264" stroke="#37393B" stroke-width="3"/><path d="m1672.89 139.702 28.95-29.632-24.63-24.978" stroke="#37393B" stroke-width="3"/><path d="m1670.9 168.859 33.29-29.632-29.02-29.156" stroke="#37393B" stroke-width="3"/><path d="m1683.62 200.509 23.06-32.054v-.237l-33.79-28.967m19.6 61.258-21.59-31.626" stroke="#37393B" stroke-width="3"/><path d="M1688.15 44.515v155.994m3.56-155.994 4.79 155.994m-12.38-155.994-4.8 155.994" stroke="#37393B" stroke-width="2"/><path d="M1693.37 41.903h-11.15v2.612h11.15v-2.612Z" fill="#37393B"/><path d="M1688.86 32.406h.71l.48 9.735h-1.66l.47-9.735Zm-2.85 0h.72l.47 9.735h-1.66l.47-9.735Zm3.33-9.498h-.24v9.498h.24v-9.498Zm-2.85 0h-.24v9.498h.24v-9.498Z" fill="#37393B"/><path d="m1400.03 220.691 3.19-1.314 4.88.906 3.94-3.283 8.25-1.698 7.31-1.585 105.42.906 9.76-.793 9.56.793 10.32-1.359 14.44.566h14.26l10.5.793 11.44-1.359 5.63-1.019 4.32 2.378 6-1.359 6.56 1.042 3.57-1.608 5.63 1.087 4.68-1.087 2.26 1.608 4.12-2.061 3.94 2.061 6.38-2.061 10.09 1.54 3.98-2.445 6 2.445 2.63-1.54 5.25.453 6.19.566 6 .521 1.13-1.54 8.81 1.019 6.94-1.019 13.88 1.019 10.51-1.019h10.13l8.62 1.019 5.63-2.264 7.13 2.264 6.38-2.264 9.56 1.585 7.54 2.241 8.6-2.581 11.81-.339 13.88 1.132 9.76-1.585 5.25 1.132 6-1.132 7.39 1.585 5.18-1.585 9.38.792h44.08l12.57-.792 9.75 1.132 11.25-1.132h53.09l4.5.181V223h-616l.75-2.309Z" fill="#FFD057"/><path d="M1514.46 141.388h-35.6v59.121h35.6v-59.121Z" fill="#A4A7AC"/><path opacity=".33" d="M1478.86 141.388h7.6l-7.6 59.121v-59.121Z" fill="#8B8F95"/><path d="M1501.41 134.74h-13.53v3.799h13.53v-3.799Z" fill="#A4A7AC"/><path d="M1499.74 138.539h-10.2v2.849h10.2v-2.849Z" fill="#A4A7AC"/><path d="M1489.54 138.539h10.2l-10.2 2.849v-2.849Z" fill="#8B8F95"/><path d="M1782.59 183.889h-63.83v14.721h63.83v-14.721Z" fill="#A4A7AC"/><path d="M1775.23 175.341h-49.11v9.498h49.11v-9.498Z" fill="#A4A7AC"/><path d="M1648.02 178.095h-82.97v20.515h82.97v-20.515Z" fill="#D7D8DA"/><path d="M1635.97 178.095h-58.66s13.13-13.035 29.33-13.035c16.21 0 29.33 13.035 29.33 13.035Z" fill="#A4A7AC"/><path d="M1576.36 158.911h-11.31v19.184h11.31v-19.184Z" fill="#D7D8DA"/><path d="M1573.11 160.834h-4.6v17.261h4.6v-17.261Zm4.2-2.683h-13.02v.76h13.02v-.76Zm-.97-2.303h-11.1v2.303h11.1v-2.303Zm-.74-5.366h-9.58v2.303h9.58v-2.303Z" fill="#F0F1F2"/><path d="M1570.81 139.346s3.25 2.968 3.25 5.366h-6.52c0-2.493 3.27-5.366 3.27-5.366Z" fill="#D7D8DA"/><path d="M1576.34 152.785h-11.1v.76h11.1v-.76Zm0-8.073h-11.1v.76h11.1v-.76Z" fill="#F0F1F2"/><path d="M1575.6 153.545h-9.58v2.303h9.58v-2.303Z" fill="#D7D8DA"/><path d="M1566.02 153.545h9.58l-9.58 2.303v-2.303Z" fill="#A4A7AC"/><path d="M1566.78 145.306h-.76v5.176h.76v-5.176Zm4.39 0h-.76v5.176h.76v-5.176Zm4.41 0h-.76v5.176h.76v-5.176Z" fill="#F0F1F2"/><path d="M1565.05 158.911h11.31l-11.31 2.303v-2.303Zm1.73-13.415h-.76v.76h.76v-.76Zm4.39 0h-.76v.76h.76v-.76Zm4.41 0h-.76v.76h.76v-.76Z" fill="#A4A7AC"/><path d="M1648.05 158.911h-11.32v19.184h11.32v-19.184Z" fill="#D7D8DA"/><path d="M1644.77 160.834h-4.6v17.261h4.6v-17.261Zm4.23-2.683h-13.03v.76H1649v-.76Zm-.98-2.303h-11.1v2.303h11.1v-2.303Zm-.75-5.366h-9.59v2.303h9.59v-2.303Z" fill="#F0F1F2"/><path d="M1642.47 139.346s3.25 2.968 3.25 5.366h-6.52c.02-2.493 3.27-5.366 3.27-5.366Z" fill="#D7D8DA"/><path d="M1648.02 152.785h-11.1v.76h11.1v-.76Zm0-8.073h-11.1v.76h11.1v-.76Z" fill="#F0F1F2"/><path d="M1647.27 153.545h-9.59v2.303h9.59v-2.303Z" fill="#D7D8DA"/><path d="M1637.68 153.545h9.59l-9.59 2.303v-2.303Z" fill="#A4A7AC"/><path d="M1638.44 145.306h-.76v5.176h.76v-5.176Zm4.41 0h-.76v5.176h.76v-5.176Zm4.41 0h-.75v5.176h.75v-5.176Z" fill="#F0F1F2"/><path d="M1636.73 158.911h11.29l-11.29 2.303v-2.303Zm1.71-13.415h-.76v.76h.76v-.76Zm4.41 0h-.76v.76h.76v-.76Zm4.41 0h-.75v.76h.75v-.76Z" fill="#A4A7AC"/><path fill-rule="evenodd" clip-rule="evenodd" d="M1635.14 177.312c.28.261.5.451.64.593v.19h-58.44s.28-.285.83-.759h56.97v-.024Zm-13.98-8.999c.57.238 1.12.499 1.66.76h-32.38a33.27 33.27 0 0 1 1.66-.76h29.06Z" fill="#8B8F95"/><path d="M1485.03 147.086h-2.37v3.799h2.37v-3.799Zm4.27 0h-2.37v3.799h2.37v-3.799Zm4.27 0h-2.37v3.799h2.37v-3.799Zm4.28 0h-2.38v3.799h2.38v-3.799Zm4.27 0h-2.38v3.799h2.38v-3.799Zm4.27 0h-2.37v3.799h2.37v-3.799Zm4.27 0h-2.37v3.799h2.37v-3.799Zm-25.63 6.649h-2.37v3.798h2.37v-3.798Zm4.27 0h-2.37v3.799h2.37v-3.799Zm4.27 0h-2.37v3.799h2.37v-3.799Zm4.28 0h-2.38v3.799h2.38v-3.799Zm4.27 0h-2.38v3.799h2.38v-3.799Zm4.27 0h-2.37v3.799h2.37v-3.799Zm4.27 0h-2.37v3.799h2.37v-3.799Zm-25.63 6.648h-2.37v3.799h2.37v-3.799Zm4.27 0h-2.37v3.799h2.37v-3.799Zm4.27 0h-2.37v3.799h2.37v-3.799Zm4.28 0h-2.38v3.799h2.38v-3.799Zm4.27 0h-2.38v3.799h2.38v-3.799Zm4.27 0h-2.37v3.799h2.37v-3.799Zm4.27 0h-2.37v3.799h2.37v-3.799Zm-25.63 6.648h-2.37v3.799h2.37v-3.799Zm4.27 0h-2.37v3.799h2.37v-3.799Zm4.27 0h-2.37v3.799h2.37v-3.799Zm4.28 0h-2.38v3.799h2.38v-3.799Zm4.27 0h-2.38v3.799h2.38v-3.799Zm4.27 0h-2.37v3.799h2.37v-3.799Zm4.27 0h-2.37v3.799h2.37v-3.799Zm-25.63 6.648h-2.37v3.799h2.37v-3.799Zm4.27 0h-2.37v3.799h2.37v-3.799Zm4.27 0h-2.37v3.799h2.37v-3.799Zm4.28 0h-2.38v3.799h2.38v-3.799Zm4.27 0h-2.38v3.799h2.38v-3.799Zm4.27 0h-2.37v3.799h2.37v-3.799Zm4.27 0h-2.37v3.799h2.37v-3.799Zm-25.63 6.648h-2.37v3.799h2.37v-3.799Zm4.27 0h-2.37v3.799h2.37v-3.799Zm4.27 0h-2.37v3.799h2.37v-3.799Zm4.28 0h-2.38v3.799h2.38v-3.799Zm4.27 0h-2.38v3.799h2.38v-3.799Zm4.27 0h-2.37v3.799h2.37v-3.799Zm4.27 0h-2.37v3.799h2.37v-3.799Zm-25.63 6.648h-2.37v3.799h2.37v-3.799Zm4.27 0h-2.37v3.799h2.37v-3.799Zm4.27 0h-2.37v3.799h2.37v-3.799Zm4.28 0h-2.38v3.799h2.38v-3.799Zm4.27 0h-2.38v3.799h2.38v-3.799Zm4.27 0h-2.37v3.799h2.37v-3.799Zm4.27 0h-2.37v3.799h2.37v-3.799Zm212.89 4.512h-2.89v5.223h2.89v-5.223Zm3.37 0h-2.89v5.223h2.89v-5.223Zm3.35 0h-2.9v5.223h2.9v-5.223Zm3.37 0h-2.9v5.223h2.9v-5.223Zm3.37 0h-2.9v5.223h2.9v-5.223Zm3.34 0h-2.89v5.223h2.89v-5.223Zm3.37 0h-2.89v5.223h2.89v-5.223Zm3.37 0h-2.89v5.223h2.89v-5.223Zm3.35 0h-2.9v5.223h2.9v-5.223Zm3.37 0h-2.9v5.223h2.9v-5.223Zm3.37 0h-2.9v5.223h2.9v-5.223Zm3.34 0h-2.89v5.223h2.89v-5.223Zm3.37 0H1761v5.223h2.89v-5.223Zm3.37 0h-2.89v5.223h2.89v-5.223Zm3.35 0h-2.9v5.223h2.9v-5.223Zm3.37 0h-2.9v5.223h2.9v-5.223Zm3.36 0h-2.89v5.223h2.89v-5.223Zm3.35 0h-2.89v5.223h2.89v-5.223Zm-57.14-6.174h-2.89v5.224h2.89v-5.224Zm3.37 0h-2.89v5.224h2.89v-5.224Zm3.35 0h-2.9v5.224h2.9v-5.224Zm3.37 0h-2.9v5.224h2.9v-5.224Zm3.37 0h-2.9v5.224h2.9v-5.224Zm3.34 0h-2.89v5.224h2.89v-5.224Zm3.37 0h-2.89v5.224h2.89v-5.224Zm3.37 0h-2.89v5.224h2.89v-5.224Zm3.35 0h-2.9v5.224h2.9v-5.224Zm3.37 0h-2.9v5.224h2.9v-5.224Zm3.37 0h-2.9v5.224h2.9v-5.224Zm3.34 0h-2.89v5.224h2.89v-5.224Zm3.37 0H1761v5.224h2.89v-5.224Zm3.37 0h-2.89v5.224h2.89v-5.224Zm3.35 0h-2.9v5.224h2.9v-5.224Zm3.37 0h-2.9v5.224h2.9v-5.224Zm3.36 0h-2.89v5.224h2.89v-5.224Zm3.35 0h-2.89v5.224h2.89v-5.224Zm-50.42-8.547h-2.9v5.223h2.9v-5.223Zm3.37 0h-2.9v5.223h2.9v-5.223Zm3.37 0h-2.9v5.223h2.9v-5.223Zm3.34 0h-2.89v5.223h2.89v-5.223Zm3.37 0h-2.89v5.223h2.89v-5.223Zm3.37 0h-2.89v5.223h2.89v-5.223Zm3.35 0h-2.9v5.223h2.9v-5.223Zm3.37 0h-2.9v5.223h2.9v-5.223Zm3.37 0h-2.9v5.223h2.9v-5.223Zm3.34 0h-2.89v5.223h2.89v-5.223Zm3.37 0H1761v5.223h2.89v-5.223Zm3.37 0h-2.89v5.223h2.89v-5.223Zm3.35 0h-2.9v5.223h2.9v-5.223Zm3.37 0h-2.9v5.223h2.9v-5.223Z" fill="#6F7277"/><path d="M1594.78 192.864h-4.23v3.632h4.23v-3.632Zm0-5.58h-4.23v4.036h4.23v-4.036Z" fill="#A4A7AC"/><path d="M1592.64 188.424c1.17 0 2.11-.511 2.11-1.14 0-.63-.94-1.14-2.11-1.14-1.16 0-2.11.51-2.11 1.14 0 .629.95 1.14 2.11 1.14Zm11.32 4.44h-4.22v3.632h4.22v-3.632Zm0-5.58h-4.22v4.036h4.22v-4.036Z" fill="#A4A7AC"/><path d="M1601.85 188.424c1.16 0 2.11-.511 2.11-1.14 0-.63-.95-1.14-2.11-1.14-1.17 0-2.11.51-2.11 1.14 0 .629.94 1.14 2.11 1.14Zm-16.28 4.44h-4.22v3.632h4.22v-3.632Zm0-5.58h-4.22v4.036h4.22v-4.036Z" fill="#A4A7AC"/><path d="M1583.46 188.424c1.16 0 2.11-.511 2.11-1.14 0-.63-.95-1.14-2.11-1.14-1.17 0-2.11.51-2.11 1.14 0 .629.94 1.14 2.11 1.14Zm-7.1 4.44h-4.22v3.632h4.22v-3.632Zm0-5.58h-4.22v4.036h4.22v-4.036Z" fill="#A4A7AC"/><path d="M1574.25 188.424c1.17 0 2.11-.511 2.11-1.14 0-.63-.94-1.14-2.11-1.14-1.16 0-2.11.51-2.11 1.14 0 .629.95 1.14 2.11 1.14Zm38.92 4.44h-4.23v3.632h4.23v-3.632Zm0-5.58h-4.23v4.036h4.23v-4.036Z" fill="#A4A7AC"/><path d="M1611.05 188.424c1.17 0 2.12-.511 2.12-1.14 0-.63-.95-1.14-2.12-1.14-1.16 0-2.11.51-2.11 1.14 0 .629.95 1.14 2.11 1.14Zm11.32 4.44h-4.22v3.632h4.22v-3.632Zm0-5.58h-4.22v4.036h4.22v-4.036Z" fill="#A4A7AC"/><path d="M1620.24 188.424c1.16 0 2.11-.511 2.11-1.14 0-.63-.95-1.14-2.11-1.14-1.17 0-2.11.51-2.11 1.14 0 .629.94 1.14 2.11 1.14Zm11.32 4.44h-4.23v3.632h4.23v-3.632Zm0-5.58h-4.23v4.036h4.23v-4.036Z" fill="#A4A7AC"/><path d="M1629.44 188.424c1.17 0 2.12-.511 2.12-1.14 0-.63-.95-1.14-2.12-1.14-1.16 0-2.11.51-2.11 1.14 0 .629.95 1.14 2.11 1.14Zm11.32 4.44h-4.22v3.632h4.22v-3.632Zm0-5.58h-4.22v4.036h4.22v-4.036Z" fill="#A4A7AC"/><path d="M1638.65 188.424c1.17 0 2.11-.511 2.11-1.14 0-.63-.94-1.14-2.11-1.14-1.16 0-2.11.51-2.11 1.14 0 .629.95 1.14 2.11 1.14Z" fill="#A4A7AC"/><path d="M2012 198.61H-13V204h2025v-5.39Z" fill="#37393B"/><path d="M1524.32 180.09c-11.56 0-22.43 10.827-16.78 16.501 5.65 5.675 11.7-4.084 16.78-4.084 6.33 0 10.98 10.353 17.22 4.084 6.24-6.268-5.67-16.501-17.22-16.501Z" fill="#F0F1F2"/><path d="M1532.22 184.364c2.13-1.188 8.9 4.748 8.18 6.41-.92 2.137-10.32-5.223-8.18-6.41Z" fill="#fff"/><path d="M1399.61 150.173h-.24v44.163h.24v-44.163Z" fill="#D7D8DA"/><path d="m1395.01 150.624-.23.049 9.18 43.196.23-.05-9.18-43.195Z" fill="#D7D8DA"/><path d="m1390.61 152.029-.21.096 17.95 40.343.21-.096-17.95-40.343Z" fill="#D7D8DA"/><path d="m1386.62 154.317-.19.139 25.94 35.728.19-.14-25.94-35.727Z" fill="#D7D8DA"/><path d="m1383.16 157.389-.16.176 32.8 29.55.16-.177-32.8-29.549Z" fill="#D7D8DA"/><path d="m1380.44 161.112-.12.206 38.22 22.081.12-.206-38.22-22.081Z" fill="#D7D8DA"/><path d="m1378.55 165.312-.08.226 41.98 13.646.07-.226-41.97-13.646Z" fill="#D7D8DA"/><path d="m1377.55 169.825-.02.236 43.89 4.615.02-.236-43.89-4.615Z" fill="#D7D8DA"/><path d="m1421.42 169.827-43.89 4.615.02.236 43.89-4.615-.02-.236Z" fill="#D7D8DA"/><path d="m1420.44 165.327-41.97 13.647.07.225 41.98-13.646-.08-.226Z" fill="#D7D8DA"/><path d="m1415.8 157.385-32.8 29.549.16.177 32.8-29.549-.16-.177Z" fill="#D7D8DA"/><path d="m1418.54 161.106-38.22 22.081.12.206 38.22-22.081-.12-.206Z" fill="#D7D8DA"/><path d="m1412.36 154.324-25.94 35.728.19.14 25.95-35.728-.2-.14Z" fill="#D7D8DA"/><path d="m1408.35 152.031-17.95 40.343.21.096 17.95-40.343-.21-.096Z" fill="#D7D8DA"/><path d="m1403.95 150.633-9.17 43.196.23.049 9.18-43.195-.24-.05Z" fill="#D7D8DA"/><path d="M1399.61 186.5c7.86 0 14.24-6.378 14.24-14.246 0-7.867-6.38-14.246-14.24-14.246s-14.24 6.379-14.24 14.246c0 7.868 6.38 14.246 14.24 14.246Z" stroke="#D7D8DA"/><path d="M1399.61 150.173c12.2 0 22.07 9.877 22.07 22.081 0 12.204-9.87 22.082-22.07 22.082-12.2 0-22.07-9.878-22.07-22.082s9.87-22.081 22.07-22.081Z" stroke="#D7D8DA"/><path d="M1399.61 178.428a6.17 6.17 0 0 0 6.17-6.174 6.17 6.17 0 1 0-12.34 0 6.17 6.17 0 0 0 6.17 6.174Z" stroke="#D7D8DA"/><path d="M1400.56 149.698h-2.14v2.612h2.14v-2.612Zm0 42.501h-2.14v2.612h2.14v-2.612Zm4.11-.677-2.09.444.54 2.555 2.09-.444-.54-2.555Zm-8.82-41.55-2.09.444.54 2.555 2.09-.445-.54-2.554Zm12.72 40.07-1.96.869 1.07 2.386 1.95-.869-1.06-2.386Zm-17.28-38.842-1.95.869 1.06 2.386 1.95-.869-1.06-2.386Zm20.78 36.557-1.73 1.256 1.54 2.113 1.72-1.256-1.53-2.113Zm-24.96-34.382-1.73 1.256 1.54 2.113 1.72-1.256-1.53-2.113Zm27.9 31.433-1.43 1.588 1.94 1.747 1.43-1.588-1.94-1.747Zm-31.57-28.448-1.42 1.588 1.93 1.748 1.43-1.588-1.94-1.748Zm33.85 24.951-1.07 1.851 2.26 1.306 1.07-1.851-2.26-1.306Zm-36.78-21.255-1.07 1.851 2.26 1.306 1.07-1.851-2.26-1.306Zm38.28 17.346-.66 2.032 2.48.807.66-2.032-2.48-.807Zm-40.41-13.146-.66 2.032 2.48.807.66-2.032-2.48-.807Zm41.05 9.02-.22 2.126 2.59.273.23-2.126-2.6-.273Zm-42.26-4.45-.22 2.126 2.59.272.22-2.125-2.59-.273Zm44.62-.004-2.6.273.23 2.125 2.59-.273-.22-2.125Zm-42.24 4.462-2.59.273.22 2.125 2.6-.273-.23-2.125Zm41.04-9.015-2.48.807.66 2.032 2.48-.807-.66-2.032Zm-40.38 13.15-2.48.807.66 2.032 2.48-.807-.66-2.032Zm35.31-21.057-1.94 1.748 1.43 1.588 1.93-1.748-1.42-1.588Zm-31.56 28.437-1.94 1.748 1.43 1.588 1.94-1.748-1.43-1.588Zm34.52-24.741-2.26 1.306 1.07 1.85 2.26-1.306-1.07-1.85Zm-36.78 21.248-2.26 1.306 1.07 1.85 2.26-1.306-1.07-1.85Zm30.18-27.922-1.54 2.113 1.73 1.256 1.53-2.113-1.72-1.256Zm-24.97 34.38-1.54 2.112 1.73 1.257 1.54-2.113-1.73-1.256Zm20.76-36.556-1.07 2.386 1.96.869 1.06-2.386-1.95-.869Zm-17.26 38.83-1.07 2.386 1.96.869 1.06-2.386-1.95-.869Zm12.73-40.063-.55 2.555 2.09.444.54-2.555-2.08-.444Zm-8.86 41.563-.54 2.554 2.09.445.54-2.555-2.09-.444Z" fill="#D7D8DA"/><path d="M1488.35 205.495h-61.93v17.808h61.93v-17.808Zm1.67-2.374h-65.26v2.374h65.26v-2.374Z" fill="#BF9017"/><path d="M1426.42 205.495h61.93l-61.93 4.274v-4.274ZM2015.28 221h-614s-3 .097-3 2h617v-2Z" fill="#7F600F"/><path d="M1450.39 156.109h17.56l1.9 47.012h-21.36l1.9-47.012Z" fill="#fff"/><path d="M1469.13 184.601v18.52h-3.79v-12.347l3.79-6.173Zm-19.93-2.137.24 20.657h9.02v-12.347l-9.26-8.31Z" fill="#D7D8DA"/><path d="M1463.91 140.438h-9.01v7.598h9.01v-7.598Z" fill="#fff"/><path d="m1454.19 139.014 5.22-3.799 5.22 3.799v.712h-10.44v-.712Z" fill="#AA1D08"/><path d="M1451.81 149.936c0-1.045.86-1.9 1.9-1.9h11.15c1.05 0 1.9.855 1.9 1.9v6.173h-14.95v-6.173Zm3.8 42.738h-27.29v10.447h27.29v-10.447Zm29.66 0h-17.8v10.447h17.8v-10.447Z" fill="#fff"/><path d="M1438.05 181.989h10.92l7.59 8.785v1.9h-31.8v-1.9l13.29-8.785Zm33.69 2.612h-1.42l-3.8 6.173v1.9h19.94v-1.9l-14.72-6.173Zm-39.86 10.803c0-.712.59-1.306 1.31-1.306.71 0 1.3.594 1.3 1.306v4.393h-2.61v-4.393Zm13.29 0c0-.712.59-1.306 1.3-1.306.72 0 1.31.594 1.31 1.306v4.393h-2.61v-4.393Zm-9.73 0c0-.712.59-1.306 1.31-1.306.71 0 1.3.594 1.3 1.306v4.393h-2.61v-4.393Zm13.29 0c0-.712.59-1.306 1.3-1.306.71 0 1.31.594 1.31 1.306v4.393h-2.61v-4.393Zm23.25 0c0-.712.6-1.306 1.31-1.306.71 0 1.3.594 1.3 1.306v4.393h-2.61v-4.393Zm-11.86-6.411c0-.593.47-1.068 1.07-1.068.59 0 1.06.475 1.06 1.068v3.681h-2.13v-3.681Zm0-15.195c0-.594.47-1.069 1.07-1.069.59 0 1.06.475 1.06 1.069v3.68h-2.13v-3.68Zm0-15.196c0-.594.47-1.069 1.07-1.069.59 0 1.06.475 1.06 1.069v3.68h-2.13v-3.68Zm-8.31 7.123c0-.333.26-.594.6-.594.33 0 .59.261.59.594v4.155h-1.19v-4.155Z" fill="#A4A7AC"/><path d="M1451.81 181.633a.59.59 0 0 1 .6-.594c.33 0 .59.262.59.594v4.155h-1.19v-4.155Zm26.82 13.771c0-.712.59-1.306 1.3-1.306.71 0 1.31.594 1.31 1.306v4.393h-2.61v-4.393Z" fill="#A4A7AC"/><path d="M1466.76 155.159h-14.95v.95h14.95v-.95Zm-2.85-8.073h-9.01v.95h9.01v-.95Zm-9.01-6.648h9.01l-9.01 1.9v-1.9Z" fill="#D7D8DA"/><path d="M1464.63 139.726h-10.44v.712h10.44v-.712ZM416 236.124c0-.665.522-1.187 1.186-1.187h61.695c.664 0 1.186.522 1.186 1.187s-.522 1.187-1.186 1.187h-61.695a1.175 1.175 0 0 1-1.186-1.187Z" fill="#fff"/><path d="M474.372 182.702c-17.773 0-22.067 42.263-22.067 42.263h22.067v-42.263Z" fill="#F0F1F2"/><path d="M474.372 186.501c12.695 12.702 15.756 43.949 15.756 43.949l-20.739-7.551s9.61-23.34 4.983-36.398Z" fill="#fff"/><path d="M446.61 230.663h43.66l-2.966 2.707a11.36 11.36 0 0 1-7.688 2.992h-29.993c-.854 0-1.613-.57-1.827-1.401l-1.186-4.298Z" fill="#AA1D08"/><path d="M457.05 226.864h15.424l1.898 3.799h-18.271l.949-3.799Z" fill="#fff"/><path fill-rule="evenodd" clip-rule="evenodd" d="M419.194 58.54H383c1.42 0 2.585-.655 2.585-1.457 0-.801-1.165-1.457-2.585-1.457h36.194c-1.42 0-2.585.656-2.585 1.457 0 .802 1.165 1.458 2.585 1.458Z" fill="#fff"/><path d="M385.298 45.825a7.244 7.244 0 0 0-7.246-7.25 7.244 7.244 0 0 0-7.246 7.25 7.244 7.244 0 0 0 7.246 7.25h38.015c8.011 0 14.528-6.522 14.528-14.537 0-8.016-6.517-14.538-14.528-14.538s-14.529 6.522-14.529 14.538m26.326 24.776a5 5 0 0 0-4.005-1.968 5.052 5.052 0 0 0-5.061 5.065 5.052 5.052 0 0 0 5.061 5.064h26.509c5.607 0 10.122-4.554 10.122-10.129 0-5.574-4.551-10.129-10.122-10.129-5.608 0-10.123 4.555-10.123 10.13m1171.825-2.25a5.008 5.008 0 0 0-4.01-1.968c-2.8 0-5.06 2.26-5.06 5.065a5.053 5.053 0 0 0 5.06 5.064h26.51c5.61 0 10.12-4.554 10.12-10.129 0-5.575-4.55-10.129-10.12-10.129-5.57 0-10.12 4.554-10.12 10.13M353 61.346h70.641" stroke="#fff" stroke-width="9" stroke-linecap="round"/></g><defs><radialGradient id="b" cx="0" cy="0" r="1" gradientUnits="userSpaceOnUse" gradientTransform="matrix(1711.17 0 0 314.58 974.419 242.959)"><stop stop-color="#FFEFC7"/><stop offset=".3" stop-color="#80ADDC"/><stop offset=".7" stop-color="#005CB9"/></radialGradient><linearGradient id="c" x1="1005.5" y1="201.509" x2="1005.5" y2="246.859" gradientUnits="userSpaceOnUse"><stop offset=".389" stop-color="#00448A"/><stop offset="1" stop-color="#005CB9"/></linearGradient><clipPath id="a"><path fill="#fff" d="M0 0h2000v250H0z"/></clipPath></defs></svg>